HIERARCHY
ROOT Hips
{
  OFFSET 5.80788e-005 67.184 3.4734
  CHANNELS 6 Xposition Yposition Zposition Zrotation Xrotation Yrotation
  JOINT Chest
  {
    OFFSET 0 8.7983 -4.7612
    CHANNELS 3 Zrotation Xrotation Yrotation
    JOINT Chest2
    {
      OFFSET 0 8.0291 0.4195
      CHANNELS 3 Zrotation Xrotation Yrotation
      JOINT Chest3
      {
        OFFSET 0 9.9351 -2.2114
        CHANNELS 3 Zrotation Xrotation Yrotation
        JOINT Neck
        {
          OFFSET 0 22.3885 -0.4656
          CHANNELS 3 Zrotation Xrotation Yrotation
          JOINT Head
          {
            OFFSET -0.0001 12.643 3.4389
            CHANNELS 3 Zrotation Xrotation Yrotation
            End Site
            {
              OFFSET 0.0001 17.6655 0.5274
            }
          }
        }
        JOINT LeftCollar
        {
          OFFSET 2.2603 21.606 7.4023
          CHANNELS 3 Zrotation Xrotation Yrotation
          JOINT LeftShoulder
          {
            OFFSET 13.5163 -1.1332 -5.0146
            CHANNELS 3 Zrotation Xrotation Yrotation
            JOINT LeftElbow
            {
              OFFSET -0.0995 -28.05 -0.2431
              CHANNELS 3 Zrotation Xrotation Yrotation
              JOINT LeftWrist
              {
                OFFSET 0.0679 -23.3996 -0.1402
                CHANNELS 3 Zrotation Xrotation Yrotation
                JOINT LeftFinger1
                {
                  OFFSET 0.7932 -9.069 2.5189
                  CHANNELS 3 Zrotation Xrotation Yrotation
                  JOINT LeftFinger11
                  {
                    OFFSET -0.8272 -3.3923 0.5977
                    CHANNELS 3 Zrotation Xrotation Yrotation
                    JOINT LeftFinger12
                    {
                      OFFSET -0.5649 -2.3158 0.4082
                      CHANNELS 3 Zrotation Xrotation Yrotation
                      End Site
                      {
                        OFFSET -0.4919 -1.6479 0.2673
                      }
                    }
                  }
                }
                JOINT LeftFinger2
                {
                  OFFSET 0.9159 -9.2044 0.2193
                  CHANNELS 3 Zrotation Xrotation Yrotation
                  JOINT LeftFinger21
                  {
                    OFFSET 0.0117 -4.1944 -0.0248
                    CHANNELS 3 Zrotation Xrotation Yrotation
                    JOINT LeftFinger22
                    {
                      OFFSET 0.0071 -2.3249 -0.0142
                      CHANNELS 3 Zrotation Xrotation Yrotation
                      End Site
                      {
                        OFFSET -0.1475 -2.0882 0.0028
                      }
                    }
                  }
                }
                JOINT LeftFinger3
                {
                  OFFSET 0.6113 -8.7231 -2.0637
                  CHANNELS 3 Zrotation Xrotation Yrotation
                  JOINT LeftFinger31
                  {
                    OFFSET -0.1927 -3.8059 -0.2383
                    CHANNELS 3 Zrotation Xrotation Yrotation
                    JOINT LeftFinger32
                    {
                      OFFSET -0.1091 -2.1688 -0.1362
                      CHANNELS 3 Zrotation Xrotation Yrotation
                      End Site
                      {
                        OFFSET -0.2358 -1.9176 -0.0906
                      }
                    }
                  }
                }
                JOINT LeftFinger4
                {
                  OFFSET -0.6151 -8.0947 -3.5641
                  CHANNELS 3 Zrotation Xrotation Yrotation
                  JOINT LeftFinger41
                  {
                    OFFSET -0.4882 -2.341 -0.6462
                    CHANNELS 3 Zrotation Xrotation Yrotation
                    JOINT LeftFinger42
                    {
                      OFFSET -0.3575 -1.7167 -0.4742
                      CHANNELS 3 Zrotation Xrotation Yrotation
                      End Site
                      {
                        OFFSET -0.4187 -1.5237 -0.3496
                      }
                    }
                  }
                }
                JOINT LeftFinger0
                {
                  OFFSET -1.42 -1.8761 1.4223
                  CHANNELS 3 Zrotation Xrotation Yrotation
                  JOINT LeftFinger01
                  {
                    OFFSET -1.1471 -3.4929 2.6334
                    CHANNELS 3 Zrotation Xrotation Yrotation
                    JOINT LeftFinger02
                    {
                      OFFSET -0.823 -2.3 1.6571
                      CHANNELS 3 Zrotation Xrotation Yrotation
                      End Site
                      {
                        OFFSET -0.5822 -1.6914 1.1582
                      }
                    }
                  }
                }
              }
            }
          }
        }
        JOINT RightCollar
        {
          OFFSET -2.2603 21.606 7.4023
          CHANNELS 3 Zrotation Xrotation Yrotation
          JOINT RightShoulder
          {
            OFFSET -13.5187 -1.1334 -5.0155
            CHANNELS 3 Zrotation Xrotation Yrotation
            JOINT RightElbow
            {
              OFFSET 0.0994 -28.0499 -0.2431
              CHANNELS 3 Zrotation Xrotation Yrotation
              JOINT RightWrist
              {
                OFFSET -0.0679 -23.3996 -0.1402
                CHANNELS 3 Zrotation Xrotation Yrotation
                JOINT RightFinger1
                {
                  OFFSET -0.7932 -9.0691 2.5189
                  CHANNELS 3 Zrotation Xrotation Yrotation
                  JOINT RightFinger11
                  {
                    OFFSET 0.8272 -3.3923 0.5977
                    CHANNELS 3 Zrotation Xrotation Yrotation
                    JOINT RightFinger12
                    {
                      OFFSET 0.565 -2.3158 0.4082
                      CHANNELS 3 Zrotation Xrotation Yrotation
                      End Site
                      {
                        OFFSET 0.4919 -1.6479 0.2673
                      }
                    }
                  }
                }
                JOINT RightFinger2
                {
                  OFFSET -0.916 -9.2044 0.2193
                  CHANNELS 3 Zrotation Xrotation Yrotation
                  JOINT RightFinger21
                  {
                    OFFSET -0.0117 -4.1944 -0.0248
                    CHANNELS 3 Zrotation Xrotation Yrotation
                    JOINT RightFinger22
                    {
                      OFFSET -0.0071 -2.3249 -0.0142
                      CHANNELS 3 Zrotation Xrotation Yrotation
                      End Site
                      {
                        OFFSET 0.1475 -2.0882 0.0028
                      }
                    }
                  }
                }
                JOINT RightFinger3
                {
                  OFFSET -0.6113 -8.7231 -2.0637
                  CHANNELS 3 Zrotation Xrotation Yrotation
                  JOINT RightFinger31
                  {
                    OFFSET 0.1927 -3.8059 -0.2383
                    CHANNELS 3 Zrotation Xrotation Yrotation
                    JOINT RightFinger32
                    {
                      OFFSET 0.1091 -2.1688 -0.1362
                      CHANNELS 3 Zrotation Xrotation Yrotation
                      End Site
                      {
                        OFFSET 0.2358 -1.9176 -0.0906
                      }
                    }
                  }
                }
                JOINT RightFinger4
                {
                  OFFSET 0.6151 -8.0947 -3.564
                  CHANNELS 3 Zrotation Xrotation Yrotation
                  JOINT RightFinger41
                  {
                    OFFSET 0.4882 -2.341 -0.6462
                    CHANNELS 3 Zrotation Xrotation Yrotation
                    JOINT RightFinger42
                    {
                      OFFSET 0.3574 -1.7166 -0.4742
                      CHANNELS 3 Zrotation Xrotation Yrotation
                      End Site
                      {
                        OFFSET 0.4187 -1.5237 -0.3496
                      }
                    }
                  }
                }
                JOINT RightFinger0
                {
                  OFFSET 1.4199 -1.8761 1.4221
                  CHANNELS 3 Zrotation Xrotation Yrotation
                  JOINT RightFinger01
                  {
                    OFFSET 1.1472 -3.4929 2.6336
                    CHANNELS 3 Zrotation Xrotation Yrotation
                    JOINT RightFinger02
                    {
                      OFFSET 0.8229 -2.3 1.6571
                      CHANNELS 3 Zrotation Xrotation Yrotation
                      End Site
                      {
                        OFFSET 0.5822 -1.6914 1.1582
                      }
                    }
                  }
                }
              }
            }
          }
        }
      }
    }
  }
  JOINT RightHip
  {
    OFFSET -9.412 3.9771 -0.7758
    CHANNELS 3 Zrotation Xrotation Yrotation
    JOINT RightKnee
    {
      OFFSET -0.7531 -40.938 0
      CHANNELS 3 Zrotation Xrotation Yrotation
      JOINT RightAnkle
      {
        OFFSET 0 -40.1986 0
        CHANNELS 3 Zrotation Xrotation Yrotation
        JOINT RightToe
        {
          OFFSET 0 -4.4182 9.239
          CHANNELS 3 Zrotation Xrotation Yrotation
          End Site
          {
            OFFSET 0 0 6.1981
          }
        }
      }
    }
  }
  JOINT LeftHip
  {
    OFFSET 9.4119 3.9773 -0.7758
    CHANNELS 3 Zrotation Xrotation Yrotation
    JOINT LeftKnee
    {
      OFFSET 0.7532 -40.9383 0
      CHANNELS 3 Zrotation Xrotation Yrotation
      JOINT LeftAnkle
      {
        OFFSET 0 -40.1986 0
        CHANNELS 3 Zrotation Xrotation Yrotation
        JOINT LeftToe
        {
          OFFSET 0 -4.4182 9.239
          CHANNELS 3 Zrotation Xrotation Yrotation
          End Site
          {
            OFFSET 0 0 6.1981
          }
        }
      }
    }
  }
}
MOTION
Frames:	5
Frame Time:	0.0333333
0.131227 5.79974 -43.6455 0 0 -2.36803e-008 2.46835 4.08863 -2.17974 5.11038 8.07614 -4.55153 5.11039 8.07616 -4.55154 1.7725e-005 2.72861e-005 -1.60338e-005 -28.9485 14.0851 -5.33492 -12.252 1.60637 -32.6024 116.804 4.92686 64.8148 -16.0513 -69.1905 -26.9851 25.6498 -4.31178 1.78895 1.59028e-015 -3.18055e-015 -0 1.59028e-015 -7.95139e-016 3.18055e-015 0 0 -0 1.59028e-015 -3.18055e-015 -0 -0.0128015 0.00229491 8.30003e-005 1.59028e-015 8.74653e-015 3.18055e-015 1.59028e-015 -3.18055e-015 -0 -0.0160562 0.00299737 0.000860062 -3.18055e-015 2.38542e-014 -3.18055e-015 1.59028e-015 -3.18055e-015 -0 -0.0125618 0.00308983 0.00281932 7.95139e-015 3.18055e-015 -0 1.59028e-015 -3.18055e-015 -0 1.59028e-015 -7.95139e-016 3.18055e-015 0 0 -0 23.6259 25.9984 63.8434 -83.575 -9.18456 -9.79102 4.6462 -14.9851 -0.3518 22.0518 -19.7806 5.71485 -6.36111e-015 -1.59028e-015 -1.59028e-015 -1.2869e-006 -1.15504e-006 -3.10468e-006 -6.36111e-015 6.36111e-015 -3.18055e-015 -6.36111e-015 -1.59028e-015 -1.59028e-015 0.0129611 0.00231731 -9.03918e-005 -3.18055e-015 0 -4.77083e-015 -6.36111e-015 -1.59028e-015 -1.59028e-015 0.0163333 0.00303762 -0.000874899 6.36111e-015 4.77083e-015 1.59028e-015 -6.36111e-015 -1.59028e-015 -1.59028e-015 0.0145853 0.00367583 -0.00327002 4.46513e-006 6.44433e-006 3.3799e-006 -6.36111e-015 -1.59028e-015 -1.59028e-015 -1.2869e-006 -1.15504e-006 -3.10468e-006 -6.36111e-015 6.36111e-015 -3.18055e-015 -3.9299 -48.4326 -13.7491 -175.648 25.7114 170.648 -3.55722 46.1574 -10.6432 6.41867e-008 -1.57604e-008 1.87787e-006 5.59355 -48.2029 14.7285 175.51 25.7412 -170.668 5.11272 45.4884 9.6238 -4.42481e-007 -4.70032e-006 -3.95704e-007 
0.131227 5.79974 -43.6455 0 0 -0 2.4693 4.05798 -2.18083 5.11087 8.0148 -4.55216 5.11089 8.01482 -4.55218 1.14514e-005 1.601e-005 -7.28372e-006 -28.9485 14.0851 -5.33493 -12.252 1.60636 -32.6024 116.804 4.92656 64.8149 -16.0512 -69.191 -26.9855 25.6498 -4.31178 1.78899 -1.59028e-015 -2.38542e-015 -3.18055e-015 -3.18055e-015 7.95139e-016 -3.18055e-015 -0 -2.38542e-015 -0 -1.59028e-015 -2.38542e-015 -3.18055e-015 -0.0128201 0.0023314 8.32103e-005 -3.18055e-015 2.38542e-015 3.18055e-015 -1.59028e-015 -2.38542e-015 -3.18055e-015 -0.0160976 0.00299721 0.000849495 -1.59028e-015 1.59028e-015 -0 -1.59028e-015 -2.38542e-015 -3.18055e-015 -0.0126288 0.0031423 0.00283658 1.59028e-015 4.77083e-015 -3.18055e-015 -1.59028e-015 -2.38542e-015 -3.18055e-015 -3.18055e-015 7.95139e-016 -3.18055e-015 -0 -2.38542e-015 -0 23.6259 25.9984 63.8434 -83.5965 -9.08309 -9.79621 4.64696 -14.9854 -0.351787 22.0518 -19.7806 5.71488 -9.54166e-015 3.18055e-015 -0 6.36111e-015 3.18055e-015 -1.59028e-015 3.18055e-015 6.36111e-015 1.59028e-015 -9.54166e-015 3.18055e-015 -0 0.0129591 0.00230518 -8.30981e-005 1.76556e-031 -1.59028e-015 6.36111e-015 -9.54166e-015 3.18055e-015 -0 0.0163358 0.00301147 -0.000877514 -3.17294e-006 1.65867e-006 -2.78792e-007 -9.54166e-015 3.18055e-015 -0 0.0145937 0.00365077 -0.00326073 -3.53113e-031 6.36111e-015 3.18055e-015 -9.54166e-015 3.18055e-015 -0 6.36111e-015 3.18055e-015 -1.59028e-015 3.18055e-015 6.36111e-015 1.59028e-015 -3.9299 -48.4326 -13.7491 -175.648 25.7114 170.648 -3.55722 46.1574 -10.6432 6.41867e-008 -1.57604e-008 1.87787e-006 5.59355 -48.2029 14.7285 175.51 25.7412 -170.668 5.11272 45.4884 9.6238 -4.42481e-007 -4.70032e-006 -3.95704e-007 
0.131227 5.79974 -43.6455 -1.90121e-006 -3.79667e-006 3.56263e-007 2.47024 4.02732 -2.18191 5.11137 7.95347 -4.5528 5.11139 7.95349 -4.55281 3.11084e-007 8.16232e-006 -2.66842e-006 -28.9485 14.0851 -5.33493 -12.252 1.60635 -32.6023 116.803 4.92646 64.8149 -16.051 -69.1911 -26.9855 25.6498 -4.3118 1.78896 4.77083e-015 6.36111e-015 -3.18055e-015 6.36111e-015 5.56597e-015 -0 4.77083e-015 7.95139e-016 3.18055e-015 4.77083e-015 6.36111e-015 -3.18055e-015 -0.0128037 0.00230502 7.22307e-005 6.36111e-015 -3.97569e-015 6.36111e-015 4.77083e-015 6.36111e-015 -3.18055e-015 -0.0160613 0.00297655 0.000852296 -3.18055e-015 1.27222e-014 1.27222e-014 4.77083e-015 6.36111e-015 -3.18055e-015 -0.012556 0.00312739 0.00283458 1.59028e-015 -3.97569e-015 3.18055e-015 4.77083e-015 6.36111e-015 -3.18055e-015 6.36111e-015 5.56597e-015 -0 4.77083e-015 7.95139e-016 3.18055e-015 23.6259 25.9984 63.8434 -83.6219 -8.97863 -9.8019 4.65198 -14.9882 -0.351583 22.0518 -19.7806 5.71484 8.82781e-032 1.59028e-015 -3.18055e-015 -6.36111e-015 -3.18055e-015 -6.36111e-015 9.54166e-015 1.59028e-015 -4.77083e-015 8.82781e-032 1.59028e-015 -3.18055e-015 0.0129501 0.00232277 -8.77729e-005 5.38992e-006 2.93899e-006 1.97836e-006 8.82781e-032 1.59028e-015 -3.18055e-015 0.0163385 0.00303521 -0.000870554 3.18055e-015 -7.95139e-015 3.18055e-015 8.82781e-032 1.59028e-015 -3.18055e-015 0.0145937 0.00368393 -0.00326651 3.73221e-006 -5.67954e-007 -2.62809e-006 8.82781e-032 1.59028e-015 -3.18055e-015 -6.36111e-015 -3.18055e-015 -6.36111e-015 9.54166e-015 1.59028e-015 -4.77083e-015 -3.92989 -48.4326 -13.7491 -175.648 25.7114 170.648 -3.55722 46.1574 -10.6432 4.0721e-007 6.20364e-008 7.3724e-007 5.59349 -48.2029 14.7285 175.51 25.7412 -170.668 5.11271 45.4883 9.62379 -6.93542e-008 -4.76537e-006 -6.01049e-007 
0.131227 5.79974 -43.6455 -0 0 8.88011e-008 2.47119 3.99667 -2.18299 5.11186 7.89213 -4.55343 5.11189 7.89216 -4.55346 1.94122e-005 3.28567e-005 -1.44639e-005 -28.9485 14.0851 -5.33492 -12.252 1.60638 -32.6024 116.804 4.92654 64.8149 -16.0512 -69.191 -26.9855 25.6498 -4.31179 1.78895 3.18055e-015 -6.36111e-015 3.18055e-015 -1.76556e-031 -3.18055e-015 -3.18055e-015 -3.18055e-015 -4.77083e-015 -3.18055e-015 3.18055e-015 -6.36111e-015 3.18055e-015 -0.0127993 0.00231739 8.0035e-005 -1.33891e-006 1.0512e-005 -2.10273e-006 3.18055e-015 -6.36111e-015 3.18055e-015 -0.0160847 0.00301212 0.000849802 -7.95139e-015 4.77083e-015 6.36111e-015 3.18055e-015 -6.36111e-015 3.18055e-015 -0.0125938 0.00310339 0.00280912 7.36599e-007 3.93668e-005 2.36825e-005 3.18055e-015 -6.36111e-015 3.18055e-015 -1.76556e-031 -3.18055e-015 -3.18055e-015 -3.18055e-015 -4.77083e-015 -3.18055e-015 23.6259 25.9984 63.8433 -83.639 -8.88071 -9.80635 4.64776 -14.9859 -0.351717 22.0518 -19.7806 5.71488 3.18055e-015 -4.77083e-015 4.77083e-015 -6.36111e-015 8.4934e-007 -0 4.43335e-006 4.17814e-006 3.39805e-006 3.18055e-015 -4.77083e-015 4.77083e-015 0.0129477 0.00233488 -9.80627e-005 -9.45515e-007 3.99221e-006 1.41336e-006 3.18055e-015 -4.77083e-015 4.77083e-015 0.0163347 0.00303558 -0.000873203 2.21714e-006 3.51171e-006 1.69911e-006 3.18055e-015 -4.77083e-015 4.77083e-015 0.0145765 0.00369399 -0.00326648 -9.45553e-007 2.35363e-006 1.41335e-006 3.18055e-015 -4.77083e-015 4.77083e-015 -6.36111e-015 8.4934e-007 -0 4.43335e-006 4.17814e-006 3.39805e-006 -3.9299 -48.4326 -13.7491 -175.648 25.7114 170.648 -3.55722 46.1574 -10.6432 6.41867e-008 -1.57604e-008 1.87787e-006 5.59355 -48.2029 14.7285 175.51 25.7412 -170.668 5.11272 45.4884 9.62379 -4.42481e-007 -4.70032e-006 -3.95704e-007 
0.131227 5.79974 -43.6455 0 0 -4.14405e-008 2.47214 3.96603 -2.18409 5.11237 7.83082 -4.55409 5.1124 7.83086 -4.55411 -5.85195e-006 -9.11373e-006 5.87529e-006 -28.9485 14.0851 -5.33493 -12.252 1.60633 -32.6023 116.803 4.92645 64.8149 -16.0512 -69.1911 -26.9857 25.6498 -4.31176 1.78897 3.48378e-006 1.77976e-005 1.12115e-005 -3.18055e-015 7.95139e-016 -3.18055e-015 6.10359e-006 -1.32951e-005 -5.69796e-006 3.48378e-006 1.77976e-005 1.12115e-005 -0.0128234 0.00232106 8.61281e-005 7.14482e-006 -7.11612e-006 -2.63245e-006 3.48378e-006 1.77976e-005 1.12115e-005 -0.0160523 0.0029424 0.000843773 4.90092e-006 9.93512e-006 -3.36531e-006 3.48378e-006 1.77976e-005 1.12115e-005 -0.0125717 0.00307115 0.00279932 3.12969e-006 -1.32726e-006 -6.33102e-007 3.48378e-006 1.77976e-005 1.12115e-005 -3.18055e-015 7.95139e-016 -3.18055e-015 6.10359e-006 -1.32951e-005 -5.69796e-006 23.6259 25.9984 63.8434 -83.6596 -8.77994 -9.81129 4.64758 -14.9858 -0.35174 22.0518 -19.7806 5.71485 1.59028e-014 3.18055e-015 1.59028e-015 -3.18055e-015 6.36111e-015 1.59028e-015 -1.26604e-006 -6.51836e-006 -3.11498e-006 1.59028e-014 3.18055e-015 1.59028e-015 0.0129646 0.0023124 -8.4812e-005 2.64834e-031 4.77083e-015 -3.18055e-015 1.59028e-014 3.18055e-015 1.59028e-015 0.0163181 0.00305937 -0.000880947 -9.45565e-007 2.17941e-007 1.41289e-006 1.59028e-014 3.18055e-015 1.59028e-015 0.0145723 0.00368289 -0.00325479 -1.37027e-006 2.80263e-006 5.94449e-007 1.59028e-014 3.18055e-015 1.59028e-015 -3.18055e-015 6.36111e-015 1.59028e-015 -1.26604e-006 -6.51836e-006 -3.11498e-006 -3.9299 -48.4326 -13.7491 -175.648 25.7114 170.648 -3.55722 46.1574 -10.6432 6.41867e-008 -1.57604e-008 1.87787e-006 5.59355 -48.2029 14.7285 175.51 25.7412 -170.668 5.11272 45.4884 9.6238 -4.42481e-007 -4.70032e-006 -3.95704e-007 
